<svg xmlns="http://www.w3.org/2000/svg" viewBox="0 0 192 192">
    <circle cx="44.72" cy="124.17" r="38.22" fill="none" stroke="#fff" stroke-miterlimit="10" stroke-width="7"/>
    <path d="M28,45.53c3-4.76,7.58-10.07,16.38-9.88a17.1,17.1,0,1,1-17.09,17.1,17.88,17.88,0,0,1,.21-3.5h0c0-15,10.26-27.82,36.11-27.19h52.22a35.08,35.08,0,0,1,35.08,35.09h0a35.08,35.08,0,0,1-35.08,35.08h33.63a35.09,35.09,0,0,1,35.08,35.08h0a35.08,35.08,0,0,1-35.08,35.08h-24l-54-140.33h0"
          fill="none" stroke="#fff" stroke-miterlimit="10" stroke-width="7"/>
</svg>