<?xml version="1.0" encoding="UTF-8"?>
<svg id="Layer_1" data-name="Layer 1" xmlns="http://www.w3.org/2000/svg" viewBox="0 0 330 66.49">
  <path d="M330,31.14V12.07h-9.78V1.26h-21.12v10.81h-5.21v8.01c-1.11-1.34-2.36-2.56-3.76-3.63-4.43-3.38-9.97-5.09-16.48-5.09-5.07,0-9.67,1.17-13.69,3.46-4.07,2.33-7.28,5.64-9.57,9.84-.5.93-.94,1.9-1.33,2.89v-15.49h-21.12v1.14c-2.82-1.23-5.98-1.85-9.44-1.85-2.07,0-4.06.25-5.98.71h-23.89V1.26h-21.12v10.81h-18.96c-1.8-.4-3.69-.63-5.7-.63-2.89,0-5.63.49-8.18,1.46v-.83h-21.05v16.24c-.49-1.29-1.07-2.53-1.75-3.72-2.43-4.21-5.8-7.51-10.02-9.82-4.15-2.26-8.8-3.41-13.84-3.41s-9.69,1.15-13.84,3.41c-4.03,2.2-7.28,5.33-9.69,9.28l-.92-2.79c-2.19-6.62-6.1-11.89-11.64-15.66C46.47,1.88,40.08,0,32.93,0c-6.11,0-11.73,1.43-16.7,4.24-5.01,2.83-9.02,6.83-11.9,11.9C1.46,21.16,0,26.89,0,33.17s1.46,12,4.33,17.01c2.89,5.03,6.89,9.01,11.9,11.84,4.97,2.81,10.59,4.24,16.7,4.24,7.2,0,13.6-1.87,19.02-5.56,4.43-3.01,7.81-7.04,10.1-11.97.53,1.56,1.18,3.06,1.98,4.48,2.37,4.23,5.69,7.54,9.86,9.85,4.1,2.28,8.74,3.43,13.79,3.43s9.77-1.15,13.94-3.4c4.24-2.29,7.64-5.58,10.13-9.78.73-1.23,1.34-2.53,1.86-3.88v16.35h21.05v-29.14c0-2.14.43-3.68,1.28-4.58.5-.53,1.42-1.23,3.58-1.23,2.05,0,2.92.65,3.44,1.21.84.9,1.27,2.45,1.27,4.6v29.14h21.05v-30.64c0-1.39-.1-2.71-.26-3.99h2.48v16.07c0,11.8,6.91,18.57,18.96,18.57h11.94v-10.01c1.96,2.92,4.4,5.31,7.3,7.12,3.82,2.39,8.09,3.6,12.71,3.6,3.47,0,6.66-.63,9.52-1.88v1.17h21.12v-15.49c.39,1,.83,1.96,1.33,2.89,2.28,4.21,5.5,7.52,9.56,9.84,4.01,2.3,8.62,3.46,13.69,3.46,6.48,0,12.03-1.76,16.49-5.24,4.45-3.47,7.46-8.18,8.95-13.99l.02-.07h0c0,11.81,6.91,18.58,18.96,18.58h11.94v-19.31h-9.78v-15.33h9.78ZM83.53,32.79c1.19-1.25,2.52-1.8,4.31-1.8s3.18.57,4.43,1.84c1.23,1.26,1.85,3.31,1.85,6.09,0,1.93-.33,3.52-.98,4.72-.59,1.1-1.33,1.88-2.24,2.38-1.02.56-2.08.84-3.23.84-1.77,0-3.06-.54-4.19-1.76-1.18-1.27-1.78-3.35-1.78-6.18s.61-4.87,1.81-6.14ZM42.96,38.42l-1.36,2.84c-.83,1.73-1.92,2.97-3.35,3.81-1.52.89-3.29,1.32-5.4,1.32-2.31,0-4.27-.5-5.99-1.53-1.69-1.01-2.98-2.44-3.95-4.36-1.03-2.04-1.55-4.51-1.55-7.33s.52-5.34,1.55-7.36c.97-1.9,2.26-3.32,3.96-4.33,1.72-1.03,3.68-1.54,5.99-1.54,2.13,0,3.91.43,5.44,1.31,1.4.81,2.49,2.03,3.31,3.75l1.36,2.84h19.6c-1.3,3.23-1.98,6.78-2.04,10.59h-17.57ZM227.93,38.93c0,1.82-.32,3.33-.96,4.5-.61,1.11-1.38,1.92-2.37,2.49-1.03.59-2.1.88-3.27.88-1.09,0-2.1-.28-3.08-.87-.99-.59-1.79-1.46-2.44-2.64-.68-1.24-1-2.71-1-4.51s.32-3.21.98-4.38c.64-1.13,1.41-1.95,2.35-2.49.98-.56,2.02-.83,3.19-.83s2.24.29,3.27.88c.98.56,1.76,1.38,2.36,2.48.64,1.17.96,2.68.96,4.5ZM188.62,31.14h5.76c-.56,2.4-.85,4.95-.85,7.62s.29,5.28.86,7.7h-5.77v-15.33ZM278.75,41.02l-1.16,3.38c-.58,1.7-1.39,2.62-4.03,2.62-2.06,0-2.98-.79-3.6-1.57-1.1-1.37-1.66-3.56-1.66-6.53s.56-5.24,1.66-6.61c.62-.77,1.54-1.57,3.6-1.57,1.15,0,2.01.22,2.64.67.64.46,1.08,1.09,1.37,1.98l1.14,3.42h20.38v4.2h-20.35Z"/>
</svg>
