<?xml version="1.0" encoding="UTF-8"?>
<svg id="Layer_1" data-name="Layer 1" xmlns="http://www.w3.org/2000/svg" viewBox="0 0 395 60">
  <path d="M391.96,23.31c-1.53-2.98-3.71-5.28-6.49-6.84-2.69-1.51-5.75-2.27-9.12-2.27-2.49,0-4.84.41-7,1.23V2.81h-16.95v23.09c-1.36-3.1-3.34-5.67-5.95-7.66-3.58-2.73-8.06-4.11-13.33-4.11-4.1,0-7.82.94-11.07,2.8-3.29,1.88-5.89,4.56-7.73,7.96-.48.88-.89,1.81-1.25,2.77v-12.95h-17.02v23.5c0,1.76-.35,3.03-1.04,3.77-.4.43-1.13.99-2.89.99s-2.39-.53-2.83-1c-.69-.74-1.04-2.01-1.04-3.76V14.71h-16.95v12.57c-.35-.84-.75-1.66-1.2-2.45-1.96-3.4-4.69-6.07-8.1-7.94-3.35-1.83-7.12-2.76-11.19-2.76s-7.84.93-11.19,2.76c-2.95,1.61-5.38,3.83-7.25,6.59v-8.77h-7.93V5.95h-17.02v8.76h-30.65c-1.45-.33-2.99-.51-4.62-.51-2.36,0-4.6.41-6.68,1.21v-.7h-18.46c1.16-1.56,1.77-3.42,1.77-5.46,0-2.58-.97-4.87-2.8-6.63-1.78-1.71-4.1-2.62-6.7-2.62s-4.92.9-6.7,2.62c-1.83,1.75-2.8,4.05-2.8,6.63,0,2.04.61,3.91,1.77,5.46h-22.41V5.95h-17.02v8.76h-4.22v7.4c-1.66-2.19-3.74-3.97-6.21-5.31-3.25-1.76-6.93-2.66-10.96-2.66s-7.94.92-11.22,2.74c-3.11,1.73-5.59,4.17-7.42,7.26l-.77-2.42c-1.68-5.31-4.81-9.5-9.28-12.45-4.36-2.88-9.51-4.34-15.31-4.34-4.93,0-9.49,1.15-13.56,3.42-4.1,2.29-7.37,5.53-9.71,9.63C1.18,22.04,0,26.68,0,31.75s1.18,9.71,3.5,13.76c2.34,4.08,5.6,7.3,9.7,9.59,4.06,2.27,8.64,3.42,13.62,3.42,4.46,0,8.58-.96,12.23-2.85,3.62-1.87,6.63-4.41,8.95-7.53l3.73-.21c1.87,3.43,4.53,6.12,7.89,8,3.3,1.84,7.04,2.78,11.13,2.78,5.09,0,9.5-1.38,13.09-4.1,3.58-2.71,6.03-6.22,7.3-10.45l.99-3.31v2.29c0,9.53,5.58,15,15.32,15h9.63v-15.55h-7.93v-12.53h21.6v28.07h34.73v-23.57c0-1.75.35-3.01,1.05-3.75.41-.44,1.16-1.01,2.94-1.01s2.43.57,2.82.99c.69.74,1.04,2.01,1.04,3.77v23.57h16.95v-24.78c0-1.15-.08-2.23-.22-3.29h17.35v13.07c0,9.53,5.58,15,15.32,15h9.63v-8.66c1.82,2.7,4.18,4.88,7.04,6.46,3.32,1.84,7.07,2.77,11.15,2.77s7.9-.93,11.27-2.75c3.42-1.86,6.18-4.52,8.19-7.91.71-1.2,1.29-2.46,1.75-3.78.38,1.9.98,3.66,1.83,5.25,1.58,2.97,3.81,5.26,6.62,6.8,2.72,1.5,5.84,2.25,9.28,2.25,2.3,0,4.5-.4,6.55-1.18v.74h17.02v-12.95c.35.96.77,1.88,1.25,2.77,1.84,3.4,4.44,6.08,7.73,7.96,3.24,1.86,6.97,2.8,11.07,2.8,5.24,0,9.73-1.42,13.33-4.23,2.6-2.03,4.59-4.59,5.95-7.62v11.28h16.95v-23.57c0-1.75.35-3,1.05-3.75.41-.44,1.16-1.01,2.94-1.01,1.69,0,2.4.53,2.83.99.69.74,1.04,2.01,1.04,3.77v23.57h16.95v-24.78c0-3.82-.74-7.2-2.2-10.04Z"/>
</svg>
