<?xml version="1.0" encoding="UTF-8"?>
<svg id="contact-svg" data-name="Layer 1" xmlns="http://www.w3.org/2000/svg" viewBox="0 0 100 135">
  <path fill="white" d="M53.47,84.87v-22.08h46.53v52.01c-4.69,5.52-11.33,10.27-19.93,14.25-8.6,3.98-17.23,5.97-25.89,5.97-10.56,0-19.87-2.59-27.94-7.79-8.07-5.2-14.46-12.97-19.17-23.33C2.36,93.52,0,81.33,0,67.32s2.39-26.66,7.16-36.86c4.77-10.21,10.97-17.84,18.59-22.89C33.38,2.52,42.5,0,53.11,0c12.75,0,22.97,3.25,30.65,9.75,7.68,6.5,12.62,16.05,14.81,28.63l-21.35,4.9c-1.6-6.71-4.54-11.85-8.81-15.41s-9.37-5.34-15.3-5.34c-9.19,0-16.64,3.58-22.33,10.73-5.69,7.15-8.54,18.07-8.54,32.73,0,15.73,3.08,27.69,9.25,35.89,5.28,7.07,12.43,10.6,21.44,10.6,4.21,0,8.58-.99,13.12-2.97,4.54-1.98,8.58-4.69,12.14-8.12v-16.51h-24.73Z"/>
</svg>