<?xml version="1.0" encoding="UTF-8"?>
<svg id="contact-svg" data-name="Layer 1" xmlns="http://www.w3.org/2000/svg" viewBox="0 0 100 60">
  <path id="contact-svg" d="M98.69,43.13l-4.24,1.92c-.25.11-.46.2-.65.28-.11-2.95-.08-8.77-.05-12.23,0-.94.01-1.81.01-2.6h5.41v-14.39h-5.42V0l-14.61,10.4v5.7h-3.66v7.26s-.02-.03-.02-.05c-2.97-5.18-7.84-7.98-14.08-8.08h-.07c-6.39.03-11.55,3.58-14.54,10.01-.51,1.1-.94,2.26-1.3,3.46v-3.04h-24.69v15.22h9.6v1.61c-1.97,1.55-4.43,2.47-6.67,2.47s-4.14-.92-5.45-2.73l-.08-.12-.09-.11c-1.31-1.52-2.68-5.57-2.78-11.19-.09-4.88.91-9.36,2.48-11.13l.1-.11.09-.12c1.27-1.72,3.59-2.84,5.92-2.84,1.06,0,2.59.23,3.89,1.32,1.1.92,1.86,2.3,2.32,4.22l.76,3.2,14.55-3.35-.53-3.09C42.89,7.53,35.48,1.25,24,1.25h-.03c-.15,0-.31,0-.46,0-6,0-11.33,2.2-15.4,6.35C2.79,13.01-.16,21.45,0,30.76c-.14,9.29,2.83,17.72,8.15,23.13,4.19,4.26,9.69,6.51,15.92,6.51.09,0,.17,0,.26,0,.12,0,.25,0,.37,0,7.07,0,15.66-3.89,19.98-9.06l.77-.92v-3.2c.85,2.87,2.1,5.44,3.75,7.43,2.7,3.6,7.49,5.75,12.86,5.75,4,0,7.66-1.22,10.32-3.44,2.76-2.22,4.78-5.54,6.03-9.88l.72-2.51c.06,3.5.22,6.16.56,7.6.58,2.56,1.8,4.59,3.6,6.03,1.78,1.44,4.22,2.2,7.07,2.2,2.67,0,5.55-.7,7.71-1.87l1.92-1.04-1.31-14.36Z"/>
</svg>