<?xml version="1.0" encoding="UTF-8"?>
<svg id="contact-svg" data-name="Layer 1" xmlns="http://www.w3.org/2000/svg" viewBox="0 0 1200 190">
 <path id="contact-svg" d="M75.09,119.44v-31.08h65.35v73.19c-6.58,7.77-15.91,14.46-27.99,20.05-12.08,5.6-24.2,8.4-36.36,8.4-14.83,0-27.91-3.65-39.23-10.97-11.33-7.31-20.3-18.25-26.93-32.84C3.31,131.62,0,114.47,0,94.75s3.35-37.52,10.06-51.89c6.7-14.37,15.41-25.11,26.11-32.21C46.88,3.55,59.68,0,74.59,0c17.91,0,32.26,4.57,43.04,13.72,10.79,9.15,17.72,22.58,20.8,40.29l-29.99,6.89c-2.25-9.44-6.37-16.67-12.37-21.68-6-5.01-13.16-7.52-21.49-7.52-12.91,0-23.37,5.03-31.36,15.1s-11.99,25.42-11.99,46.06c0,22.14,4.33,38.98,12.99,50.51,7.41,9.94,17.45,14.91,30.11,14.91,5.91,0,12.06-1.39,18.43-4.19,6.37-2.79,12.06-6.6,17.06-11.43v-23.24h-34.74Z 
        M231.53,144.63l28.61,5.89c-3.84,13.37-9.8,23.29-17.89,29.77-8.09,6.48-17.93,9.71-29.52,9.71-16.1,0-28.53-5.4-37.28-16.2-10.34-12.55-15.51-30.13-15.51-52.73s5.2-40.09,15.62-53.49c8.83-11.3,20.24-16.95,34.24-16.95,15.58,0,27.78,5.77,36.61,17.32,10.16,13.22,15.24,32.72,15.24,58.5l-.13,4.02h-72.09c.17,10.57,2.53,18.75,7.08,24.53,4.55,5.79,10.05,8.68,16.48,8.68,9.27,0,15.45-6.35,18.55-19.05Z
        M233.03,108.91c-.25-10.4-2.46-18.22-6.62-23.47-4.17-5.24-9.12-7.86-14.87-7.86-6.08,0-11.2,2.73-15.37,8.18-4.25,5.54-6.33,13.26-6.25,23.15h43.11Z 
        M334.74,53.77v28.07h-19.62v53.73c0,11.63.29,18.37.87,20.21,1.17,3.35,3.54,5.02,7.12,5.02,2.66,0,6.5-1.13,11.5-3.38l2.5,27.32c-6.66,3.51-14.2,5.26-22.62,5.26-7.33,0-13.2-1.76-17.62-5.27-4.42-3.51-7.37-8.57-8.87-15.18-1.17-4.85-1.75-14.72-1.75-29.61v-58.09h-13.24v-28.07h13.24v-26.44l28.86-20.55v47h19.62Z M413.2,35.72V3.13h28.86v32.59h-28.86ZM413.2,186.87V53.77h28.86v133.1h-28.86ZM570.51,186.87h-28.86v-68.01c0-13.63-.54-22.71-1.62-27.23-1.08-4.52-3.1-7.99-6.06-10.41-2.96-2.42-6.31-3.64-10.06-3.64-4.83,0-9.21,1.57-13.12,4.71-3.92,3.14-6.66,7.47-8.25,12.99-1.58,5.52-2.37,15.93-2.37,31.24v60.35h-28.86V53.77h26.74v19.43c4.75-7.52,10.1-13.16,16.06-16.92,5.96-3.76,12.56-5.64,19.8-5.64,8.41,0,15.51,2.19,21.3,6.59s9.79,10.04,12,16.94c2.21,6.9,3.31,16.87,3.31,29.92v82.79Z
        M707.83,53.77v28.07h-19.62v53.73c0,11.63.29,18.37.87,20.21,1.17,3.35,3.54,5.02,7.12,5.02,2.66,0,6.5-1.13,11.49-3.38l2.5,27.32c-6.67,3.51-14.2,5.26-22.62,5.26-7.33,0-13.2-1.76-17.62-5.27-4.42-3.51-7.37-8.57-8.87-15.18-1.17-4.85-1.75-14.72-1.75-29.61v-58.09h-13.24v-28.07h13.24v-26.44l28.86-20.55v47h19.62Z
        M721.2,118.43c0-13.06,2.58-24.94,7.75-35.66,5.16-10.71,11.91-18.75,20.24-24.11,8.33-5.36,17.7-8.04,28.11-8.04,17.49,0,31.24,6.88,41.23,20.65,10,13.77,14.99,29.86,14.99,48.28,0,13.73-2.6,26.12-7.81,37.17-5.21,11.05-12.04,19.36-20.49,24.92-8.46,5.56-17.72,8.35-27.8,8.35-16.16,0-29.57-6.19-40.23-18.58-10.66-12.39-15.99-30.05-15.99-52.98Z
        M750.69,120.32c0,13.49,2.63,23.7,7.89,30.61,5.26,6.91,11.61,10.37,19.04,10.37s13.48-3.48,18.66-10.43c5.18-6.96,7.77-17.22,7.77-30.8s-2.63-23.34-7.89-30.3c-5.26-6.96-11.56-10.44-18.91-10.44s-13.51,3.48-18.73,10.44c-5.22,6.96-7.83,17.14-7.83,30.55Z
        M927.49,186.87v-19.91c-3.99,7.22-9.23,12.87-15.72,16.94-6.49,4.07-13.26,6.11-20.33,6.11s-13.55-1.88-19.21-5.64c-5.65-3.76-9.87-9.12-12.66-16.06-2.79-6.94-4.18-17.02-4.18-30.23V53.77h28.86v61.16c0,17.46.44,28.56,1.31,33.28.87,4.72,2.8,8.38,5.79,10.97,2.99,2.59,6.6,3.88,10.84,3.88,4.82,0,9.26-1.69,13.33-5.08,4.07-3.38,6.75-7.73,8.04-13.03,1.29-5.3,1.93-16.98,1.93-35.03v-56.15h28.86v133.1h-26.86Z
        M1079.3,92.99l-28.36,6.27c-2.1-13.95-8.67-20.93-19.73-20.93-7.12,0-12.86,3.02-17.22,9.05-4.36,6.04-6.53,16.22-6.53,30.55,0,15.84,2.17,27.03,6.51,33.56,4.34,6.54,10.15,9.81,17.42,9.81,5.43,0,9.9-1.86,13.41-5.58,3.51-3.72,6.02-10.3,7.52-19.74l28.36,5.89c-5.83,32.08-22.62,48.13-50.35,48.13-17.74,0-30.91-6.78-39.48-20.34-8.58-13.56-12.87-29.88-12.87-48.97,0-22.85,4.86-40.24,14.57-52.17,9.71-11.93,22.45-17.89,38.22-17.89,12.76,0,23.16,3.38,31.21,10.15,8.05,6.77,13.82,17.51,17.33,32.21Z 
        M1129.78,3.13v67.43c4.58-6.68,9.64-11.67,15.18-14.98,5.54-3.3,11.56-4.95,18.06-4.95,8.66,0,15.91,2.3,21.74,6.9,5.83,4.6,10,11.12,12.5,19.57,1.83,6.19,2.75,16.73,2.75,31.61v78.15h-28.86v-70.39c0-16.31-1.04-26.52-3.11-30.62-2.91-5.52-7.85-8.28-14.82-8.28-7.39,0-13.14,2.99-17.26,8.97-4.11,5.98-6.16,17.17-6.16,33.56v66.75h-28.86V3.13h28.86Z"
    />
</svg>