<?xml version="1.0" encoding="UTF-8"?>
<svg id="contact-svg" data-name="Layer 1" xmlns="http://www.w3.org/2000/svg" viewBox="0 0 100 184">
  <path id="contact-svg" fill="#e6e7e8" d="M28.86,0v67.43c4.58-6.68,9.64-11.67,15.18-14.98,5.54-3.3,11.56-4.95,18.06-4.95,8.66,0,15.91,2.3,21.74,6.9,5.83,4.6,10,11.12,12.5,19.57,1.83,6.19,2.75,16.73,2.75,31.61v78.15h-28.86v-70.39c0-16.31-1.04-26.52-3.11-30.62-2.91-5.52-7.85-8.28-14.82-8.28-7.39,0-13.14,2.99-17.26,8.97-4.11,5.98-6.16,17.17-6.16,33.56v66.75H0V0h28.86Z"/>
</svg>