<?xml version="1.0" encoding="UTF-8"?>
<svg id="contact-svg" data-name="Layer 1" xmlns="http://www.w3.org/2000/svg" viewBox="0 0 100 114.57">
  <path id="contact-svg" d="M97.86,43.77c-1.63-5.09-4.62-9.32-8.88-12.56-4.14-3.23-9.69-5.01-15.64-5.01-4.8,0-9.46,1.18-13.31,3.34v-1.62h-30.87V0H0v114.57h61.2v-39.82c.03-1.29.05-2.54.07-3.73.16-9.51.48-13.12,3.39-15.65.89-.7,1.88-1.08,2.8-1.08,1.4,0,2.27.83,2.64,2.55l.02.07c.98,4.25.82,24.37.73,36.39-.05,6.39-.09,11.91,0,14.85l.2,6.42h28.96v-52.28c0-7.95-.7-14.01-2.14-18.52Z"/>
</svg>