<?xml version="1.0" encoding="UTF-8"?>
<svg id="contact-svg" data-name="Layer 1" xmlns="http://www.w3.org/2000/svg" viewBox="0 0 100 135">
  <path id="contact-svg" fill="#e6e7e8" d="M99.21,136.23h-28.86v-68.01c0-13.63-.54-22.71-1.62-27.23-1.08-4.52-3.1-7.99-6.06-10.41-2.96-2.42-6.31-3.64-10.06-3.64-4.83,0-9.21,1.57-13.12,4.71-3.92,3.14-6.66,7.47-8.25,12.99-1.58,5.52-2.37,15.93-2.37,31.24v60.35H0V3.13h26.74v19.43c4.75-7.52,10.1-13.16,16.06-16.92C48.75,1.88,55.35,0,62.6,0c8.41,0,15.51,2.19,21.3,6.59s9.79,10.04,12,16.94c2.21,6.9,3.31,16.87,3.31,29.92v82.79Z"/>
</svg>