<?xml version="1.0" encoding="UTF-8"?>
<svg id="contact-svg" data-name="Layer 1" xmlns="http://www.w3.org/2000/svg" viewBox="0 0 103 140">
  <path id="contact-svg" fill="#e6e7e8" d="M101.33,42.36l-28.36,6.27c-2.1-13.95-8.67-20.93-19.73-20.93-7.12,0-12.86,3.02-17.22,9.05-4.36,6.04-6.53,16.22-6.53,30.55,0,15.84,2.17,27.03,6.51,33.56,4.34,6.54,10.15,9.81,17.42,9.81,5.43,0,9.9-1.86,13.41-5.58,3.51-3.72,6.02-10.3,7.52-19.74l28.36,5.89c-5.83,32.08-22.62,48.13-50.35,48.13-17.74,0-30.91-6.78-39.48-20.34C4.29,105.47,0,89.14,0,70.06,0,47.21,4.86,29.82,14.57,17.89,24.29,5.96,37.03,0,52.79,0c12.76,0,23.16,3.38,31.21,10.15,8.05,6.77,13.82,17.51,17.33,32.21Z"/>
</svg>