<?xml version="1.0" encoding="UTF-8"?>
<svg id="contact-svg" data-name="Layer 1" xmlns="http://www.w3.org/2000/svg" viewBox="0 0 101.71 139.37">
  <path id="contact-svg" fill="#e6e7e8" d="M71.6,94l28.61,5.89c-3.84,13.37-9.8,23.29-17.89,29.77-8.09,6.48-17.93,9.71-29.52,9.71-16.1,0-28.53-5.4-37.28-16.2C5.17,110.61,0,93.04,0,70.44S5.2,30.34,15.62,16.95C24.45,5.65,35.86,0,49.85,0c15.58,0,27.78,5.77,36.61,17.32,10.16,13.22,15.24,32.72,15.24,58.5l-.13,4.02H29.49c.17,10.57,2.53,18.75,7.08,24.53,4.55,5.79,10.05,8.68,16.48,8.68,9.27,0,15.45-6.35,18.55-19.05ZM73.09,58.28c-.25-10.4-2.46-18.22-6.62-23.47-4.17-5.24-9.12-7.86-14.87-7.86-6.08,0-11.2,2.73-15.37,8.18-4.25,5.54-6.33,13.26-6.25,23.15h43.11Z"/>
</svg>