<?xml version="1.0" encoding="UTF-8"?>
<svg id="contact-svg" data-name="Layer 1" xmlns="http://www.w3.org/2000/svg" viewBox="0 0 100 16">
  <path id="contact-svg" d="M6.26,10.06v-2.62h5.45v6.16c-.55.65-1.33,1.22-2.33,1.69-1.01.47-2.02.71-3.03.71-1.24,0-2.33-.31-3.27-.92-.94-.62-1.69-1.54-2.24-2.77-.55-1.23-.83-2.67-.83-4.33s.28-3.16.84-4.37c.56-1.21,1.28-2.11,2.18-2.71.89-.6,1.96-.9,3.2-.9,1.49,0,2.69.39,3.59,1.16.9.77,1.48,1.9,1.73,3.39l-2.5.58c-.19-.8-.53-1.4-1.03-1.83-.5-.42-1.1-.63-1.79-.63-1.08,0-1.95.42-2.61,1.27s-1,2.14-1,3.88c0,1.86.36,3.28,1.08,4.25.62.84,1.45,1.26,2.51,1.26.49,0,1-.12,1.54-.35.53-.23,1-.56,1.42-.96v-1.96h-2.89Z
M19.29,12.18l2.38.5c-.32,1.13-.82,1.96-1.49,2.51-.67.55-1.49.82-2.46.82-1.34,0-2.38-.45-3.11-1.36-.86-1.06-1.29-2.54-1.29-4.44s.43-3.38,1.3-4.5c.74-.95,1.69-1.43,2.85-1.43,1.3,0,2.31.49,3.05,1.46.85,1.11,1.27,2.76,1.27,4.93v.34h-6.02c.01.89.21,1.58.59,2.07.38.49.84.73,1.37.73.77,0,1.29-.53,1.55-1.6ZM19.42,9.17c-.02-.88-.2-1.53-.55-1.98-.35-.44-.76-.66-1.24-.66-.51,0-.93.23-1.28.69-.35.47-.53,1.12-.52,1.95h3.59Z
M27.89,4.53v2.36h-1.63v4.52c0,.98.02,1.55.07,1.7.1.28.29.42.59.42.22,0,.54-.09.96-.28l.21,2.3c-.56.3-1.18.44-1.88.44-.61,0-1.1-.15-1.47-.44-.37-.3-.61-.72-.74-1.28-.1-.41-.15-1.24-.15-2.49v-4.89h-1.1v-2.36h1.1v-2.23l2.41-1.73v3.96h1.63Z
M34.43,3.01V.26h2.41v2.74h-2.41ZM34.43,15.74V4.53h2.41v11.21h-2.41Z
M47.54,15.74h-2.41v-5.73c0-1.15-.05-1.91-.14-2.29-.09-.38-.26-.67-.5-.88-.25-.2-.53-.31-.84-.31-.4,0-.77.13-1.09.4-.33.26-.56.63-.69,1.09-.13.46-.2,1.34-.2,2.63v5.08h-2.41V4.53h2.23v1.64c.4-.63.84-1.11,1.34-1.42.5-.32,1.05-.47,1.65-.47.7,0,1.29.18,1.78.55s.82.85,1,1.43c.18.58.28,1.42.28,2.52v6.97Z
M58.99,4.53v2.36h-1.63v4.52c0,.98.02,1.55.07,1.7.1.28.29.42.59.42.22,0,.54-.09.96-.28l.21,2.3c-.56.3-1.18.44-1.88.44-.61,0-1.1-.15-1.47-.44-.37-.3-.61-.72-.74-1.28-.1-.41-.15-1.24-.15-2.49v-4.89h-1.1v-2.36h1.1v-2.23l2.41-1.73v3.96h1.63Z
M60.1,9.97c0-1.1.22-2.1.65-3,.43-.9.99-1.58,1.69-2.03.69-.45,1.47-.68,2.34-.68,1.46,0,2.6.58,3.44,1.74.83,1.16,1.25,2.51,1.25,4.07,0,1.16-.22,2.2-.65,3.13-.43.93-1,1.63-1.71,2.1-.7.47-1.48.7-2.32.7-1.35,0-2.46-.52-3.35-1.56-.89-1.04-1.33-2.53-1.33-4.46ZM62.56,10.13c0,1.14.22,2,.66,2.58.44.58.97.87,1.59.87s1.12-.29,1.56-.88.65-1.45.65-2.59-.22-1.97-.66-2.55c-.44-.59-.96-.88-1.58-.88s-1.13.29-1.56.88c-.43.59-.65,1.44-.65,2.57Z
M77.29,15.74v-1.68c-.33.61-.77,1.08-1.31,1.43-.54.34-1.11.51-1.69.51s-1.13-.16-1.6-.48c-.47-.32-.82-.77-1.05-1.35-.23-.58-.35-1.43-.35-2.55v-7.1h2.41v5.15c0,1.47.04,2.4.11,2.8.07.4.23.71.48.92.25.22.55.33.9.33.4,0,.77-.14,1.11-.43.34-.28.56-.65.67-1.1.11-.45.16-1.43.16-2.95v-4.73h2.41v11.21h-2.24Z
M89.94,7.83l-2.36.53c-.17-1.17-.72-1.76-1.64-1.76-.59,0-1.07.25-1.43.76-.36.51-.54,1.37-.54,2.57,0,1.33.18,2.28.54,2.83.36.55.85.83,1.45.83.45,0,.82-.16,1.12-.47.29-.31.5-.87.63-1.66l2.36.5c-.49,2.7-1.88,4.05-4.2,4.05-1.48,0-2.58-.57-3.29-1.71-.71-1.14-1.07-2.52-1.07-4.12,0-1.92.4-3.39,1.21-4.39.81-1,1.87-1.51,3.18-1.51,1.06,0,1.93.28,2.6.85.67.57,1.15,1.47,1.44,2.71Z
M94.15.26v5.68c.38-.56.8-.98,1.27-1.26.46-.28.96-.42,1.5-.42.72,0,1.33.19,1.81.58.49.39.83.94,1.04,1.65.15.52.23,1.41.23,2.66v6.58h-2.41v-5.93c0-1.37-.09-2.23-.26-2.58-.24-.46-.65-.7-1.24-.7-.62,0-1.1.25-1.44.76-.34.5-.51,1.45-.51,2.83v5.62h-2.41V.26h2.41Z"/>
</svg>