<?xml version="1.0" encoding="UTF-8"?>
<svg id="contact-svg" data-name="Layer 1" xmlns="http://www.w3.org/2000/svg" viewBox="0 0 113 140">
  <path id="contact-svg" fill="#e6e7e8" d="M0,67.8c0-13.06,2.58-24.94,7.75-35.66,5.16-10.71,11.91-18.75,20.24-24.11C36.32,2.68,45.69,0,56.1,0c17.49,0,31.24,6.88,41.23,20.65,10,13.77,14.99,29.86,14.99,48.28,0,13.73-2.6,26.12-7.81,37.17-5.21,11.05-12.04,19.36-20.49,24.92-8.46,5.56-17.72,8.35-27.8,8.35-16.16,0-29.57-6.19-40.23-18.58C5.33,108.4,0,90.73,0,67.8ZM29.49,69.68c0,13.49,2.63,23.7,7.89,30.61,5.26,6.91,11.61,10.37,19.04,10.37s13.48-3.48,18.66-10.43,7.77-17.22,7.77-30.8-2.63-23.34-7.89-30.3c-5.26-6.96-11.56-10.44-18.91-10.44s-13.51,3.48-18.73,10.44c-5.22,6.96-7.83,17.14-7.83,30.55Z"/>
</svg>