<?xml version="1.0" encoding="UTF-8"?>
<svg id="contact-svg" data-name="Layer 1" xmlns="http://www.w3.org/2000/svg" viewBox="0 0 100 135">
  <path id="contact-svg" fill="#e6e7e8" d="M72.09,133.1v-19.91c-3.99,7.22-9.23,12.87-15.72,16.94-6.49,4.07-13.26,6.11-20.33,6.11s-13.55-1.88-19.21-5.64c-5.65-3.76-9.87-9.12-12.66-16.06-2.79-6.94-4.18-17.02-4.18-30.23V0h28.86v61.16c0,17.46.44,28.56,1.31,33.28.87,4.72,2.8,8.38,5.79,10.97,2.99,2.59,6.6,3.88,10.84,3.88,4.82,0,9.26-1.69,13.33-5.08,4.07-3.38,6.75-7.73,8.04-13.03,1.29-5.3,1.93-16.98,1.93-35.03V0h28.86v133.1h-26.86Z"/>
</svg>